<svg xmlns="http://www.w3.org/2000/svg" viewBox="0 0 24 24" fill="none">
  <path fill-rule="evenodd" clip-rule="evenodd" d="M13.06 16.06C12.7787 16.3409 12.3975 16.4987 12 16.4987C11.6025 16.4987 11.2212 16.3409 10.94 16.06L5.28197 10.404C5.0007 10.1226 4.84275 9.74102 4.84284 9.34316C4.84293 8.9453 5.00107 8.56377 5.28247 8.28251C5.56386 8.00125 5.94546 7.84329 6.34332 7.84338C6.74118 7.84348 7.1227 8.00162 7.40397 8.28301L12 12.879L16.596 8.28301C16.8787 8.00964 17.2576 7.85826 17.6509 7.8615C18.0442 7.86473 18.4205 8.0223 18.6987 8.30028C18.977 8.57827 19.1349 8.95441 19.1385 9.34771C19.1421 9.741 18.9911 10.12 18.718 10.403L13.061 16.061L13.06 16.06Z" fill="currentColor"/>
</svg>