<svg viewBox="0 0 24 24" fill="none" xmlns="http://www.w3.org/2000/svg">
<path d="M10.202 3.03458C11.0258 2.90616 11.867 3.10659 12.5444 3.59265L12.6254 3.65566L12.7596 3.55665C13.1552 3.28488 13.6074 3.10628 14.082 3.03426C14.5566 2.96224 15.0413 2.99866 15.4999 3.1408L15.6862 3.2056C16.0844 3.35655 16.4481 3.58596 16.7559 3.88021C17.0636 4.17446 17.3091 4.52756 17.4777 4.91851L17.4903 4.94642L17.5308 4.94282C17.9575 4.90881 18.3867 4.96136 18.7927 5.09732C19.1986 5.23328 19.5729 5.44984 19.893 5.73401L20.0307 5.86363L20.353 6.18587C22.1319 7.96539 20.0649 12.2598 16.1624 16.1618C12.259 20.0638 7.96492 22.1313 6.18516 20.3518L5.84127 20.008L5.71974 19.8775C5.16407 19.2446 4.88237 18.4171 4.93654 17.5768L4.94554 17.4868L4.7997 17.4219C4.40773 17.2335 4.05863 16.9665 3.77402 16.6377C3.4894 16.3088 3.27534 15.925 3.14507 15.5101L3.09556 15.3373C2.981 14.8866 2.96677 14.4163 3.05387 13.9595C3.14098 13.5027 3.3273 13.0706 3.59969 12.6937L3.65551 12.6226L3.59249 12.5398C3.14355 11.9135 2.93752 11.1454 3.01274 10.3786L3.03525 10.1986C3.10782 9.73221 3.2834 9.28787 3.54921 8.89785C3.81502 8.50783 4.16439 8.18191 4.57194 7.94379L4.61335 7.92038L4.60885 7.79437C4.60725 7.01702 4.8907 6.26606 5.40556 5.68361L5.54059 5.53959L5.68373 5.40547C6.26663 4.8908 7.01804 4.6077 7.79567 4.60978L7.92171 4.61338L7.94511 4.57197C8.16798 4.19083 8.46785 3.86032 8.82559 3.6015C9.18332 3.34269 9.59108 3.16126 10.0228 3.06879L10.202 3.03458Z" fill="currentColor"/>
</svg>
