<svg viewBox="0 0 24 24" fill="none" xmlns="http://www.w3.org/2000/svg">
<path d="M12 2C8 2 4 9.03333 4 14.2222C4 18.5222 7.57714 22 12 22C16.4229 22 20 18.5222 20 14.2222C20 9.03333 16 2 12 2ZM13.1429 18.6667C9.71429 18.6667 7.42857 16.4556 7.42857 13.1111C7.42857 12.5 7.94286 12 8.57143 12C9.2 12 9.71429 12.5 9.71429 13.1111C9.71429 16.3556 12.48 16.4444 13.1429 16.4444C13.7714 16.4444 14.2857 16.9444 14.2857 17.5556C14.2857 18.1667 13.7714 18.6667 13.1429 18.6667Z" fill="currentColor"/>
</svg>
