<svg xmlns="http://www.w3.org/2000/svg" viewBox="0 0 24 24" fill="none">
  <path d="M3 19.9643V9.67857C3 9.31666 3.07987 8.97381 3.23962 8.65C3.39937 8.32619 3.6195 8.05952 3.9 7.85L10.65 2.70714C11.0437 2.40238 11.4937 2.25 12 2.25C12.5062 2.25 12.9562 2.40238 13.35 2.70714L20.1 7.85C20.3812 8.05952 20.6017 8.32619 20.7615 8.65C20.9212 8.97381 21.0007 9.31666 21 9.67857V19.9643C21 20.5929 20.7795 21.1311 20.3385 21.5791C19.8975 22.0271 19.368 22.2508 18.75 22.25H15.375C15.0562 22.25 14.7892 22.1403 14.574 21.9209C14.3587 21.7014 14.2507 21.4302 14.25 21.1071V15.3929C14.25 15.069 14.142 14.7978 13.926 14.5791C13.71 14.3605 13.443 14.2508 13.125 14.25H10.875C10.5562 14.25 10.2892 14.3597 10.074 14.5791C9.85875 14.7986 9.75075 15.0698 9.75 15.3929V21.1071C9.75 21.4309 9.642 21.7026 9.426 21.922C9.21 22.1414 8.943 22.2508 8.625 22.25H5.25C4.63125 22.25 4.10175 22.0264 3.6615 21.5791C3.22125 21.1319 3.00075 20.5936 3 19.9643Z" fill="currentColor"/>
</svg>