<svg xmlns="http://www.w3.org/2000/svg" viewBox="0 0 24 24" fill="none">
  <path fill-rule="evenodd" clip-rule="evenodd" d="M12.0116 1C12.3126 1 12.6013 1.11589 12.8142 1.32218C13.0271 1.52847 13.1466 1.80826 13.1466 2.1V3.1582L13.889 2.7776C14.1551 2.64121 14.4662 2.61286 14.7539 2.69878C15.0416 2.7847 15.2823 2.97785 15.4231 3.23575C15.5638 3.49365 15.593 3.79516 15.5044 4.07396C15.4157 4.35276 15.2164 4.58601 14.9503 4.7224L13.1466 5.6464V7.7386C13.9582 7.941 14.6813 8.3546 15.2511 8.9167L17.1217 7.8706L17.0457 5.895C17.0344 5.60341 17.1431 5.31941 17.3478 5.10549C17.5526 4.89157 17.8367 4.76524 18.1376 4.7543C18.4385 4.74336 18.7315 4.8487 18.9523 5.04715C19.173 5.2456 19.3034 5.52091 19.3147 5.8125L19.3453 6.6265L20.2909 6.0974C20.42 6.02403 20.5628 5.97614 20.7111 5.95649C20.8595 5.93684 21.0103 5.94581 21.155 5.98289C21.2998 6.01997 21.4355 6.08443 21.5544 6.17255C21.6733 6.26066 21.7731 6.37071 21.8479 6.49634C21.9228 6.62197 21.9712 6.76071 21.9905 6.90457C22.0098 7.04843 21.9996 7.19456 21.9603 7.33456C21.9211 7.47456 21.8537 7.60566 21.762 7.72031C21.6703 7.83496 21.5561 7.9309 21.4259 8.0026L20.4804 8.5306L21.1921 8.964C21.3184 9.04085 21.4278 9.14105 21.5141 9.25887C21.6004 9.37669 21.6619 9.50983 21.6951 9.65069C21.7283 9.79155 21.7325 9.93736 21.7076 10.0798C21.6826 10.2223 21.629 10.3585 21.5497 10.4809C21.4704 10.6033 21.367 10.7093 21.2454 10.7929C21.1238 10.8765 20.9864 10.9361 20.8411 10.9683C20.6957 11.0005 20.5453 11.0046 20.3983 10.9804C20.2513 10.9562 20.1106 10.9042 19.9844 10.8274L18.2568 9.7758L16.3873 10.8208C16.6085 11.5919 16.6085 12.407 16.3873 13.1781L18.2568 14.2242L19.9844 13.1726C20.2394 13.0174 20.5475 12.9667 20.8411 13.0317C21.1346 13.0967 21.3895 13.272 21.5497 13.5191C21.7098 13.7662 21.7621 14.0648 21.6951 14.3493C21.628 14.6338 21.4471 14.8808 21.1921 15.036L20.4816 15.4683L21.4259 15.9974C21.5561 16.0691 21.6703 16.165 21.762 16.2797C21.8537 16.3943 21.9211 16.5254 21.9603 16.6654C21.9996 16.8054 22.0098 16.9516 21.9905 17.0954C21.9712 17.2393 21.9228 17.378 21.8479 17.5037C21.7731 17.6293 21.6733 17.7393 21.5544 17.8275C21.4355 17.9156 21.2998 17.98 21.155 18.0171C21.0103 18.0542 20.8595 18.0632 20.7111 18.0435C20.5628 18.0239 20.42 17.976 20.2909 17.9026L19.3465 17.3746L19.3147 18.1875C19.3034 18.4791 19.173 18.7544 18.9523 18.9528C18.7315 19.1513 18.4385 19.2566 18.1376 19.2457C17.8367 19.2348 17.5526 19.1084 17.3478 18.8945C17.1431 18.6806 17.0344 18.3966 17.0457 18.105L17.1217 16.1294L15.2511 15.0833C14.6813 15.6443 13.9571 16.059 13.1466 16.2614V18.3536L14.9503 19.2776C15.2164 19.414 15.4157 19.6472 15.5044 19.926C15.593 20.2048 15.5638 20.5064 15.4231 20.7643C15.2823 21.0221 15.0416 21.2153 14.7539 21.3012C14.4662 21.3871 14.1551 21.3588 13.889 21.2224L13.1466 20.8418V21.9C13.1466 22.1917 13.0271 22.4715 12.8142 22.6778C12.6013 22.8841 12.3126 23 12.0116 23C11.7105 23 11.4218 22.8841 11.2089 22.6778C10.9961 22.4715 10.8765 22.1917 10.8765 21.9V20.8418L10.1341 21.2224C10.0024 21.2899 9.85816 21.3317 9.70975 21.3452C9.56135 21.3587 9.41164 21.3438 9.26919 21.3012C9.12674 21.2587 8.99433 21.1894 8.87952 21.0972C8.76472 21.0051 8.66976 20.8919 8.60007 20.7643C8.53039 20.6366 8.48734 20.4968 8.47338 20.353C8.45943 20.2092 8.47484 20.0641 8.51874 19.926C8.56264 19.788 8.63417 19.6597 8.72924 19.5484C8.82431 19.4372 8.94106 19.3451 9.07283 19.2776L10.8765 18.3536V16.2614C10.0774 16.061 9.34988 15.6533 8.77204 15.0822L6.90142 16.1294L6.97747 18.105C6.98299 18.2494 6.9591 18.3934 6.90718 18.5288C6.85526 18.6643 6.77633 18.7885 6.67488 18.8943C6.57343 19.0002 6.45145 19.0857 6.31592 19.1459C6.18038 19.2061 6.03394 19.2398 5.88495 19.2452C5.73597 19.2505 5.58735 19.2273 5.4476 19.177C5.30784 19.1267 5.17968 19.0502 5.07043 18.9519C4.96118 18.8536 4.87298 18.7354 4.81087 18.604C4.74876 18.4727 4.71396 18.3308 4.70844 18.1864L4.67779 17.3735L3.73227 17.9015C3.60306 17.979 3.45911 18.0305 3.30896 18.0531C3.15881 18.0756 3.00551 18.0687 2.85816 18.0328C2.71081 17.9969 2.5724 17.9327 2.45114 17.8439C2.32987 17.7552 2.22823 17.6438 2.15222 17.5163C2.07622 17.3888 2.0274 17.2478 2.00866 17.1017C1.98993 16.9556 2.00165 16.8073 2.04315 16.6656C2.08465 16.524 2.15507 16.3918 2.25024 16.2771C2.34541 16.1623 2.46339 16.0672 2.59719 15.9974L3.54271 15.4683L2.83101 15.0349C2.58278 14.8768 2.40839 14.6307 2.34527 14.3494C2.28215 14.0681 2.33532 13.7741 2.49338 13.5303C2.65144 13.2866 2.90179 13.1126 3.19071 13.0458C3.47962 12.9789 3.78408 13.0244 4.03874 13.1726L5.76634 14.2242L7.63582 13.1781C7.41479 12.4073 7.41479 11.5927 7.63582 10.8219L5.76634 9.7769L4.03874 10.8274C3.78408 10.9756 3.47962 11.0211 3.19071 10.9542C2.90179 10.8874 2.65144 10.7134 2.49338 10.4697C2.33532 10.2259 2.28215 9.93188 2.34527 9.65059C2.40839 9.3693 2.58278 9.1232 2.83101 8.9651L3.54271 8.5317L2.59719 8.0037C2.33633 7.85783 2.14596 7.61752 2.06794 7.33562C1.98992 7.05372 2.03066 6.75334 2.18118 6.50055C2.3317 6.24776 2.57968 6.06327 2.87057 5.98766C3.16145 5.91206 3.47142 5.95153 3.73227 6.0974L4.67779 6.6265L4.70844 5.8125C4.71973 5.52091 4.85009 5.2456 5.07083 5.04715C5.18013 4.94889 5.30834 4.87245 5.44812 4.82221C5.58791 4.77196 5.73653 4.74888 5.88552 4.7543C6.03451 4.75972 6.18093 4.79352 6.31644 4.85378C6.45195 4.91403 6.57388 4.99957 6.67528 5.10549C6.77667 5.21141 6.85555 5.33565 6.9074 5.47112C6.95925 5.60658 6.98306 5.75062 6.97747 5.895L6.90142 7.8706L8.77204 8.9178C9.34988 8.34667 10.0774 7.93899 10.8765 7.7386V5.6464L9.07283 4.7224C8.80671 4.58601 8.6074 4.35276 8.51874 4.07396C8.43008 3.79516 8.45933 3.49365 8.60007 3.23575C8.74081 2.97785 8.9815 2.7847 9.26919 2.69878C9.55688 2.61286 9.86801 2.64121 10.1341 2.7776L10.8765 3.1582V2.1C10.8765 1.80826 10.9961 1.52847 11.2089 1.32218C11.4218 1.11589 11.7105 1 12.0116 1ZM12.0116 14.2C12.6136 14.2 13.1911 13.9682 13.6168 13.5556C14.0425 13.1431 14.2817 12.5835 14.2817 12C14.2817 11.4165 14.0425 10.8569 13.6168 10.4444C13.1911 10.0318 12.6136 9.8 12.0116 9.8C11.4095 9.8 10.8321 10.0318 10.4063 10.4444C9.98058 10.8569 9.7414 11.4165 9.7414 12C9.7414 12.5835 9.98058 13.1431 10.4063 13.5556C10.8321 13.9682 11.4095 14.2 12.0116 14.2Z" fill="currentColor"/>
</svg>