<svg viewBox="0 0 24 24" fill="none" xmlns="http://www.w3.org/2000/svg">
<path d="M18.38 6.24C17.79 3.24 15.14 1 12 1C8.86 1 6.21 3.24 5.62 6.24C4.85146 6.52401 4.18837 7.03662 3.71995 7.70885C3.25154 8.38108 3.00028 9.18067 3 10C3 12.21 4.79 14 7 14C7.12 14 7.23 13.98 7.34 13.98L11.17 21.29C11.55 22.01 12.58 22 12.95 21.28L16.68 13.97C16.79 13.98 16.89 14 17 14C19.21 14 21 12.21 21 10C21 8.29 19.92 6.81 18.38 6.24ZM12.05 18.63L9.32 13.42C10.1684 13.8058 11.0902 14.0038 12.0222 14.0003C12.9542 13.9969 13.8745 13.7921 14.72 13.4L12.05 18.63Z" fill="currentColor"/>
</svg>
