<svg xmlns="http://www.w3.org/2000/svg" viewBox="0 0 24 24" fill="none">
  <path fill-rule="evenodd" clip-rule="evenodd" d="M7.654 2.70301C7.86033 2.62986 8.08497 2.62645 8.29343 2.69329C8.50189 2.76012 8.68266 2.89352 8.808 3.07301C9.22261 3.6679 9.77484 4.15379 10.4177 4.48931C11.0605 4.82483 11.7749 5.00003 12.5 5.00001C13.608 5.00001 14.62 4.60101 15.403 3.93901C15.5395 3.82354 15.7045 3.74679 15.8808 3.71675C16.057 3.6867 16.2381 3.70447 16.4052 3.76819C16.5722 3.83191 16.7191 3.93925 16.8306 4.07904C16.9421 4.21883 17.0141 4.38596 17.039 4.56301C17.1746 5.51688 17.65 6.38976 18.3777 7.0212C19.1054 7.65264 20.0365 8.0002 21 8.00001C21.1857 8.00001 21.3678 8.05172 21.5257 8.14936C21.6837 8.24699 21.8114 8.38669 21.8944 8.55279C21.9775 8.7189 22.0126 8.90485 21.996 9.08981C21.9793 9.27477 21.9114 9.45144 21.8 9.60001C21.2794 10.2917 20.9985 11.1343 21 12C21 12.902 21.297 13.731 21.8 14.4C21.9114 14.5486 21.9793 14.7252 21.996 14.9102C22.0126 15.0952 21.9775 15.2811 21.8944 15.4472C21.8114 15.6133 21.6837 15.753 21.5257 15.8507C21.3678 15.9483 21.1857 16 21 16C20.024 16 19.0816 16.3568 18.3504 17.0033C17.6192 17.6498 17.1496 18.5413 17.03 19.51C17.0056 19.7117 16.9203 19.9011 16.7856 20.0531C16.6508 20.2052 16.4729 20.3125 16.2756 20.361C16.0783 20.4094 15.871 20.3966 15.6812 20.3242C15.4913 20.2519 15.328 20.1235 15.213 19.956C14.7996 19.3528 14.2454 18.8595 13.5985 18.5187C12.9515 18.1778 12.2312 17.9998 11.5 18C10.3648 17.9979 9.27113 18.4268 8.44 19.2C8.31669 19.3141 8.16662 19.3954 8.00364 19.4362C7.84065 19.477 7.67001 19.4761 7.50748 19.4335C7.34494 19.391 7.19574 19.3081 7.07366 19.1927C6.95159 19.0773 6.86056 18.9329 6.809 18.773C6.54929 17.9672 6.04057 17.2645 5.35609 16.7662C4.67161 16.2679 3.84666 15.9996 3 16C2.81429 16 2.63225 15.9483 2.47427 15.8507C2.31629 15.753 2.18863 15.6133 2.10557 15.4472C2.02252 15.2811 1.98736 15.0952 2.00404 14.9102C2.02072 14.7252 2.08857 14.5486 2.2 14.4C2.703 13.731 3 12.902 3 12C3 11.098 2.703 10.27 2.2 9.60001C2.08857 9.45144 2.02072 9.27477 2.00404 9.08981C1.98736 8.90485 2.02252 8.7189 2.10557 8.55279C2.18863 8.38669 2.31629 8.24699 2.47427 8.14936C2.63225 8.05172 2.81429 8.00001 3 8.00001C3.54931 8.00003 4.09274 7.88691 4.59642 7.6677C5.1001 7.44849 5.55323 7.12788 5.92757 6.72587C6.3019 6.32386 6.58943 5.84905 6.77222 5.33104C6.955 4.81303 7.02914 4.26292 6.99 3.71501C6.97485 3.49693 7.03158 3.27991 7.1515 3.09714C7.27142 2.91437 7.44792 2.77593 7.654 2.70301Z" fill="currentColor"/>
</svg>