<svg viewBox="0 0 24 24" fill="none" xmlns="http://www.w3.org/2000/svg">
<path d="M21.5725 18.6141C21.7052 18.7411 21.8115 18.8937 21.8849 19.0628C21.9583 19.232 21.9974 19.4143 21.9999 19.5991C22.0024 19.7838 21.9682 19.9671 21.8994 20.1382C21.8306 20.3094 21.7286 20.4648 21.5993 20.5954C21.47 20.726 21.3162 20.8291 21.1468 20.8986C20.9775 20.968 20.7961 21.0025 20.6133 20.9999C20.4306 20.9972 20.2502 20.9576 20.0829 20.8834C19.9155 20.8091 19.7646 20.7017 19.6391 20.5674L15.4496 16.3337L12.2254 19.5908L5.13533 12.4244C3.79566 11.07 3.03014 9.24171 3.00087 7.32675C2.97161 5.41178 3.6809 3.5605 4.97854 2.16492L5.13624 2L21.5725 18.6141Z" fill="currentColor"/>
</svg>
