<svg xmlns="http://www.w3.org/2000/svg" viewBox="0 0 24 24" fill="none">
  <path fill-rule="evenodd" clip-rule="evenodd" d="M5.088 3.06727C4.97719 3.01703 4.85482 2.99431 4.7323 3.00121C4.60978 3.00811 4.49108 3.04442 4.38727 3.10676C4.28346 3.16909 4.19791 3.25543 4.13859 3.35771C4.07926 3.46 4.0481 3.57492 4.048 3.69176V7.87343C4.048 8.09359 3.93164 8.35806 3.69891 8.63084C2.99345 9.45194 2 11.1163 2 13.9147C2 16.4652 3.25818 18.2764 5.17091 19.4187C7.04145 20.5361 9.50982 21 12 21C14.4873 21 16.9571 20.5361 18.8305 19.4173C20.7418 18.2764 22 16.4652 22 13.9147C22 11.1163 21.0065 9.45194 20.3011 8.63084C20.0684 8.35806 19.952 8.09359 19.952 7.87204V3.69176C19.9519 3.57492 19.9207 3.46 19.8614 3.35771C19.8021 3.25543 19.7165 3.16909 19.6127 3.10676C19.5089 3.04442 19.3902 3.00811 19.2677 3.00121C19.1452 2.99431 19.0228 3.01703 18.912 3.06727L14.56 5.04041L14.5164 5.03211C14.279 4.98261 14.0409 4.93645 13.8022 4.89364C13.2567 4.79671 12.5367 4.68871 12.0015 4.68871C11.4662 4.68871 10.7462 4.79671 10.2007 4.89364C9.91855 4.94487 9.66836 4.99472 9.488 5.03211L9.44436 5.04041L5.08655 3.06866L5.088 3.06727ZM16.2735 14.7261C16.2735 16.5871 14.3593 17.7114 12 17.7114C9.64073 17.7114 7.72655 16.6729 7.72655 14.7261C7.72655 12.7793 9.64073 11.7408 12 11.7408C14.3593 11.7408 16.2735 12.8651 16.2735 14.7261ZM7.90982 10.9612C7.66871 10.9612 7.43748 10.87 7.26699 10.7077C7.09651 10.5454 7.00073 10.3253 7.00073 10.0958C7.00073 9.86628 7.09651 9.64616 7.26699 9.48387C7.43748 9.32157 7.66871 9.23039 7.90982 9.23039C8.15092 9.23039 8.38216 9.32157 8.55264 9.48387C8.72313 9.64616 8.81891 9.86628 8.81891 10.0958C8.81891 10.3253 8.72313 10.5454 8.55264 10.7077C8.38216 10.87 8.15092 10.9612 7.90982 10.9612ZM16.0916 10.9612C16.3327 10.9612 16.564 10.87 16.7345 10.7077C16.9049 10.5454 17.0007 10.3253 17.0007 10.0958C17.0007 9.86628 16.9049 9.64616 16.7345 9.48387C16.564 9.32157 16.3327 9.23039 16.0916 9.23039C15.8505 9.23039 15.6193 9.32157 15.4488 9.48387C15.2783 9.64616 15.1825 9.86628 15.1825 10.0958C15.1825 10.3253 15.2783 10.5454 15.4488 10.7077C15.6193 10.87 15.8505 10.9612 16.0916 10.9612ZM13.4545 15.7646C13.6957 15.7646 13.9269 15.6734 14.0974 15.5111C14.2679 15.3488 14.3636 15.1287 14.3636 14.8992C14.3636 14.6697 14.2679 14.4495 14.0974 14.2873C13.9269 14.125 13.6957 14.0338 13.4545 14.0338C13.2134 14.0338 12.9822 14.125 12.8117 14.2873C12.6412 14.4495 12.5455 14.6697 12.5455 14.8992C12.5455 15.1287 12.6412 15.3488 12.8117 15.5111C12.9822 15.6734 13.2134 15.7646 13.4545 15.7646ZM9.63636 14.8992C9.63636 14.6697 9.73214 14.4495 9.90263 14.2873C10.0731 14.125 10.3043 14.0338 10.5455 14.0338C10.7866 14.0338 11.0178 14.125 11.1883 14.2873C11.3588 14.4495 11.4545 14.6697 11.4545 14.8992C11.4545 15.1287 11.3588 15.3488 11.1883 15.5111C11.0178 15.6734 10.7866 15.7646 10.5455 15.7646C10.3043 15.7646 10.0731 15.6734 9.90263 15.5111C9.73214 15.3488 9.63636 15.1287 9.63636 14.8992Z" fill="currentColor"/>
</svg>