<svg viewBox="0 0 24 24" fill="none" xmlns="http://www.w3.org/2000/svg">
<path d="M20.413 10.4348H11.8043V6.52174H20.0064C20.3077 6.52174 20.5721 6.30089 20.605 6.00136C20.6439 5.64727 20.3679 5.34784 20.0217 5.34784H11.8044V4.1739H20.0064C20.3078 4.1739 20.5721 3.95305 20.6051 3.65352C20.6439 3.29943 20.3679 3 20.0217 3H5.36317C5.06181 3 4.79747 3.22085 4.76449 3.52038C4.72561 3.87448 5.00166 4.1739 5.3478 4.1739H5.93477V5.3478H5.36317C5.06181 5.3478 4.79747 5.56866 4.76453 5.86819C4.72564 6.22228 5.00169 6.52171 5.34784 6.52171H5.93481V10.4347H3.58697C3.26191 10.4347 2.99986 10.7007 3 11.0257C3.00151 14.2723 4.83217 17.283 7.69564 18.7996V19.2391C7.69564 20.2115 8.48399 20.9999 9.45652 20.9999H14.5435C15.516 20.9999 16.3044 20.2116 16.3044 19.2391V18.7996C19.1678 17.2831 20.9985 14.2724 21 11.0258C21.0001 10.7008 20.7381 10.4348 20.413 10.4348ZM8.28261 10.4348H7.10871V4.1739H8.28261V10.4348ZM10.6304 10.4348H9.45652V4.1739H10.6304V10.4348Z" fill="currentColor"/>
</svg>
