<svg viewBox="0 0 24 24" fill="none" xmlns="http://www.w3.org/2000/svg">
<path d="M6 15C5.16667 15 4.45833 14.7083 3.875 14.125C3.29167 13.5417 3 12.8333 3 12V7.99999H16.025C16.1083 7.44999 16.3333 6.95832 16.7 6.52499C17.0667 6.09165 17.5167 5.78332 18.05 5.59999L22.675 4.04999L23.3 5.94999L18.675 7.49999C18.475 7.56665 18.3123 7.68765 18.187 7.86299C18.0617 8.03832 17.9993 8.23399 18 8.44999V12C18 12.8333 17.7083 13.5417 17.125 14.125C16.5417 14.7083 15.8333 15 15 15H6ZM9 21V18H2V16H9C9.55 16 10.021 16.196 10.413 16.588C10.805 16.98 11.0007 17.4507 11 18V21H9ZM13 21V18C13 17.45 13.196 16.9793 13.588 16.588C13.98 16.1967 14.4507 16.0007 15 16H22V18H15V21H13Z" fill="currentColor"/>
</svg>
