<svg viewBox="0 0 24 24" fill="none" xmlns="http://www.w3.org/2000/svg">
<path d="M2.90723 14.2273C2.90723 14.9297 3.47868 15.5012 4.18121 15.5012H13.1472V12.9533H4.18121C3.47868 12.9533 2.90723 13.5247 2.90723 14.2273Z" fill="currentColor"/>
<path d="M20.726 12.9533H17.7335V15.5012H20.726C21.4285 15.5012 22 14.9297 22 14.2273C22 13.5248 21.4285 12.9533 20.726 12.9533Z" fill="currentColor"/>
<path d="M12.9588 4.29019H6.40936V7.34775H12.9588V4.29019Z" fill="currentColor"/>
<path d="M4.13323 19.578H20.6781C21.3805 19.578 21.952 19.0065 21.952 18.304C21.952 17.6015 21.3805 17.03 20.6781 17.03H17.6021C17.2865 17.9196 16.4369 18.5588 15.4404 18.5588C14.4439 18.5588 13.5942 17.9196 13.2787 17.03H4.13323C3.43076 17.03 2.85925 17.6015 2.85925 18.304C2.85925 19.0065 3.43076 19.578 4.13323 19.578Z" fill="currentColor"/>
<path d="M4.13323 11.4245H14.676V16.2656C14.676 16.6878 15.0182 17.03 15.4404 17.03C15.8625 17.03 16.2048 16.6878 16.2048 16.2656V11.4245H20.6781C21.3805 11.4245 21.952 10.853 21.952 10.1505C21.952 9.44806 21.3805 8.87656 20.6781 8.87656H4.13323C3.43076 8.87656 2.85925 9.44801 2.85925 10.1505C2.85925 10.8531 3.43076 11.4245 4.13323 11.4245Z" fill="currentColor"/>
</svg>
