<svg xmlns="http://www.w3.org/2000/svg" viewBox="0 0 12 12" fill="none">
  <path fill-rule="evenodd" clip-rule="evenodd" d="M8.03001 5.46999C8.17046 5.61061 8.24935 5.80124 8.24935 5.99999C8.24935 6.19874 8.17046 6.38936 8.03001 6.52999L5.20201 9.35899C5.06131 9.49962 4.87051 9.5786 4.67158 9.57855C4.47265 9.5785 4.28189 9.49943 4.14126 9.35874C4.00062 9.21804 3.92165 9.02724 3.92169 8.82831C3.92174 8.62938 4.00081 8.43862 4.14151 8.29799L6.43951 5.99999L4.14151 3.70199C4.00482 3.5606 3.92913 3.37118 3.93075 3.17453C3.93236 2.97788 4.01115 2.78974 4.15014 2.65061C4.28913 2.51149 4.47721 2.43253 4.67385 2.43073C4.8705 2.42893 5.05999 2.50443 5.20151 2.64099L8.03051 5.46949L8.03001 5.46999Z" fill="currentColor"/>
</svg>