<svg xmlns="http://www.w3.org/2000/svg" viewBox="0 0 24 24" fill="none">
  <path fill-rule="evenodd" clip-rule="evenodd" d="M7.46006 2.45392C8.58235 1.98905 9.78521 1.74979 11 1.74979C12.2147 1.74979 13.4176 1.98905 14.5399 2.45392C15.6621 2.91878 16.6819 3.60015 17.5408 4.45911C18.3998 5.31807 19.0812 6.3378 19.546 7.46009C20.0109 8.58238 20.2502 9.78524 20.2502 11C20.2502 12.2147 20.0109 13.4176 19.546 14.5399C19.2415 15.2751 18.8441 15.9662 18.3647 16.597L21.8838 20.1161C22.372 20.6043 22.372 21.3957 21.8838 21.8839C21.3957 22.372 20.6042 22.372 20.1161 21.8839L16.597 18.3648C14.9966 19.5811 13.0328 20.2502 11 20.2502C8.54665 20.2502 6.19383 19.2756 4.45908 17.5409C2.72433 15.8061 1.74976 13.4533 1.74976 11C1.74976 8.54669 2.72433 6.19386 4.45908 4.45911C5.31804 3.60015 6.33777 2.91878 7.46006 2.45392ZM11 4.24979C10.1135 4.24979 9.23574 4.42439 8.41677 4.76362C7.5978 5.10284 6.85366 5.60006 6.22685 6.22688C4.96094 7.49279 4.24976 9.20973 4.24976 11C4.24976 12.7903 4.96094 14.5072 6.22685 15.7731C7.49275 17.039 9.2097 17.7502 11 17.7502C12.7902 17.7502 14.5072 17.039 15.7731 15.7731C16.3999 15.1463 16.8971 14.4022 17.2363 13.5832C17.5756 12.7642 17.7502 11.8864 17.7502 11C17.7502 10.1135 17.5756 9.23577 17.2363 8.4168C16.8971 7.59783 16.3999 6.85369 15.7731 6.22688C15.1463 5.60006 14.4021 5.10284 13.5832 4.76362C12.7642 4.42439 11.8864 4.24979 11 4.24979Z" fill="currentColor"/>
</svg>