<svg viewBox="0 0 24 24" fill="none" xmlns="http://www.w3.org/2000/svg">
<path d="M3.00595 17.3395C3.00595 17.7129 3.30864 18.0155 3.68191 18.0155H20.2904C20.2906 18.0155 20.2909 18.0155 20.2911 18.0155C20.2913 18.0155 20.2915 18.0155 20.2917 18.0155C20.665 18.0155 20.9676 17.7128 20.9676 17.3395C20.9676 17.3245 20.9672 17.3096 20.9662 17.2947C20.9422 12.3633 16.923 8.35925 11.9861 8.35925C7.0345 8.35932 3.00595 12.3878 3.00595 17.3395Z" fill="currentColor"/>
<path d="M18.9863 10.3071C20.2972 11.6119 21.1989 13.2174 21.6274 14.967C22.2748 13.6217 22.0854 11.8496 21.0062 10.4567C20.313 9.56208 19.3569 8.95124 18.3136 8.73649C17.8248 8.63596 17.3437 8.62767 16.8876 8.70653C17.6453 9.13892 18.3509 9.67468 18.9863 10.3071Z" fill="currentColor"/>
<path d="M7.0959 8.70377C6.64479 8.62788 6.16944 8.63697 5.68654 8.73643C4.64331 8.95118 3.68715 9.56202 2.99408 10.4566C1.92432 11.8372 1.72863 13.5906 2.35563 14.9314C3.02169 12.2685 4.76587 10.0284 7.0959 8.70377Z" fill="currentColor"/>
<path d="M11.9862 7.41292C13.3587 7.41292 14.6894 7.69151 15.9146 8.2208C15.2388 6.90376 13.7329 5.98444 11.9862 5.98444C10.2375 5.98444 8.73004 6.90585 8.05536 8.22524C9.26149 7.70302 10.5905 7.41292 11.9862 7.41292Z" fill="currentColor"/>
</svg>
